# xmcd
#
# Track frame offsets: 
#        150
#        12957
#        29070
#        40055
#        53642
#        65197
#        81585
#        93340
#        108310
#        120090
#        130905
#        141780
#
# Disc length: 2085 seconds
#
# Revision: 0
# Processed by: cddbd v1.4PL0 Copyright (c) Steve Scherf et al.
# Submitted via: ExactAudioCopy v0.90b2
#
DISCID=a108230c
DTITLE=Chris Jones - Just A Drifter
DYEAR=2000
DGENRE=Country
TTITLE0=Just a Town
TTITLE1=Cowboys Ain't Supposed to Cry
TTITLE2=Uphill Climb
TTITLE3=The Man on the Side of the Road
TTITLE4=Tonight I'm Gonna Ride
TTITLE5=Pretty Saro
TTITLE6=The Last Nail
TTITLE7=Witness
TTITLE8=Slave Rock
TTITLE9=Heartaches to Forget
TTITLE10=BRN Breakdown
TTITLE11=A Few More Years
EXTD=
EXTT0=
EXTT1=
EXTT2=
EXTT3=
EXTT4=
EXTT5=
EXTT6=
EXTT7=
EXTT8=
EXTT9=
EXTT10=
EXTT11=
PLAYORDER=
